<svg width="500" height="500" viewBox="0 0 500 500" fill="none" xmlns="http://www.w3.org/2000/svg">
<g clip-path="url(#clip0_510_3806)">
<line x1="-0.353553" y1="499.646" x2="499.646" y2="-0.353523" stroke="black"/>
<line x1="0.352131" y1="3.64503" x2="500.352" y2="499.645" stroke="black"/>
<rect width="140" height="31" transform="translate(180 234)" fill="white"/>
<path d="M207.051 256.199C206.218 256.199 205.467 256.033 204.8 255.702C204.132 255.37 203.597 254.916 203.195 254.338C202.792 253.76 202.572 253.102 202.534 252.364H204.239C204.305 253.022 204.603 253.566 205.134 253.997C205.669 254.423 206.308 254.636 207.051 254.636C207.648 254.636 208.178 254.497 208.642 254.217C209.111 253.938 209.478 253.554 209.743 253.067C210.013 252.574 210.148 252.018 210.148 251.398C210.148 250.763 210.008 250.197 209.729 249.7C209.454 249.198 209.075 248.803 208.592 248.514C208.109 248.225 207.558 248.079 206.938 248.074C206.492 248.069 206.036 248.138 205.567 248.28C205.098 248.417 204.712 248.595 204.409 248.812L202.761 248.614L203.642 241.455H211.199V243.017H205.119L204.608 247.307H204.693C204.991 247.07 205.366 246.874 205.815 246.717C206.265 246.561 206.734 246.483 207.222 246.483C208.112 246.483 208.905 246.696 209.601 247.122C210.302 247.544 210.851 248.121 211.249 248.855C211.651 249.589 211.852 250.427 211.852 251.369C211.852 252.297 211.644 253.126 211.227 253.855C210.815 254.58 210.247 255.152 209.523 255.574C208.798 255.991 207.974 256.199 207.051 256.199ZM219.418 256.199C218.348 256.199 217.436 255.908 216.684 255.325C215.931 254.738 215.355 253.888 214.958 252.776C214.56 251.658 214.361 250.309 214.361 248.727C214.361 247.155 214.56 245.813 214.958 244.7C215.36 243.583 215.938 242.731 216.691 242.143C217.448 241.552 218.357 241.256 219.418 241.256C220.479 241.256 221.385 241.552 222.138 242.143C222.896 242.731 223.473 243.583 223.871 244.7C224.274 245.813 224.475 247.155 224.475 248.727C224.475 250.309 224.276 251.658 223.878 252.776C223.48 253.888 222.905 254.738 222.152 255.325C221.4 255.908 220.488 256.199 219.418 256.199ZM219.418 254.636C220.479 254.636 221.302 254.125 221.89 253.102C222.477 252.08 222.77 250.621 222.77 248.727C222.77 247.468 222.635 246.395 222.365 245.51C222.1 244.625 221.717 243.95 221.215 243.486C220.718 243.022 220.119 242.79 219.418 242.79C218.367 242.79 217.545 243.308 216.953 244.345C216.362 245.377 216.066 246.838 216.066 248.727C216.066 249.987 216.198 251.057 216.463 251.938C216.729 252.818 217.11 253.488 217.607 253.947C218.109 254.407 218.712 254.636 219.418 254.636ZM231.918 256.199C230.848 256.199 229.936 255.908 229.184 255.325C228.431 254.738 227.855 253.888 227.458 252.776C227.06 251.658 226.861 250.309 226.861 248.727C226.861 247.155 227.06 245.813 227.458 244.7C227.86 243.583 228.438 242.731 229.191 242.143C229.948 241.552 230.857 241.256 231.918 241.256C232.979 241.256 233.885 241.552 234.638 242.143C235.396 242.731 235.973 243.583 236.371 244.7C236.774 245.813 236.975 247.155 236.975 248.727C236.975 250.309 236.776 251.658 236.378 252.776C235.98 253.888 235.405 254.738 234.652 255.325C233.9 255.908 232.988 256.199 231.918 256.199ZM231.918 254.636C232.979 254.636 233.802 254.125 234.39 253.102C234.977 252.08 235.27 250.621 235.27 248.727C235.27 247.468 235.135 246.395 234.865 245.51C234.6 244.625 234.217 243.95 233.715 243.486C233.218 243.022 232.619 242.79 231.918 242.79C230.867 242.79 230.045 243.308 229.453 244.345C228.862 245.377 228.566 246.838 228.566 248.727C228.566 249.987 228.698 251.057 228.963 251.938C229.229 252.818 229.61 253.488 230.107 253.947C230.609 254.407 231.212 254.636 231.918 254.636ZM253.85 253.386L245.838 245.375L246.918 244.295L254.929 252.307L253.85 253.386ZM246.918 253.386L245.838 252.307L253.85 244.295L254.929 245.375L246.918 253.386ZM268.653 256.199C267.819 256.199 267.069 256.033 266.401 255.702C265.734 255.37 265.199 254.916 264.796 254.338C264.394 253.76 264.174 253.102 264.136 252.364H265.84C265.906 253.022 266.205 253.566 266.735 253.997C267.27 254.423 267.909 254.636 268.653 254.636C269.249 254.636 269.78 254.497 270.244 254.217C270.712 253.938 271.079 253.554 271.344 253.067C271.614 252.574 271.749 252.018 271.749 251.398C271.749 250.763 271.61 250.197 271.33 249.7C271.056 249.198 270.677 248.803 270.194 248.514C269.711 248.225 269.159 248.079 268.539 248.074C268.094 248.069 267.637 248.138 267.168 248.28C266.7 248.417 266.314 248.595 266.011 248.812L264.363 248.614L265.244 241.455H272.8V243.017H266.721L266.21 247.307H266.295C266.593 247.07 266.967 246.874 267.417 246.717C267.867 246.561 268.335 246.483 268.823 246.483C269.713 246.483 270.506 246.696 271.202 247.122C271.903 247.544 272.452 248.121 272.85 248.855C273.253 249.589 273.454 250.427 273.454 251.369C273.454 252.297 273.246 253.126 272.829 253.855C272.417 254.58 271.849 255.152 271.124 255.574C270.4 255.991 269.576 256.199 268.653 256.199ZM281.02 256.199C279.949 256.199 279.038 255.908 278.285 255.325C277.532 254.738 276.957 253.888 276.559 252.776C276.162 251.658 275.963 250.309 275.963 248.727C275.963 247.155 276.162 245.813 276.559 244.7C276.962 243.583 277.539 242.731 278.292 242.143C279.05 241.552 279.959 241.256 281.02 241.256C282.08 241.256 282.987 241.552 283.74 242.143C284.497 242.731 285.075 243.583 285.473 244.7C285.875 245.813 286.076 247.155 286.076 248.727C286.076 250.309 285.877 251.658 285.48 252.776C285.082 253.888 284.507 254.738 283.754 255.325C283.001 255.908 282.09 256.199 281.02 256.199ZM281.02 254.636C282.08 254.636 282.904 254.125 283.491 253.102C284.078 252.08 284.372 250.621 284.372 248.727C284.372 247.468 284.237 246.395 283.967 245.51C283.702 244.625 283.318 243.95 282.816 243.486C282.319 243.022 281.72 242.79 281.02 242.79C279.968 242.79 279.147 243.308 278.555 244.345C277.963 245.377 277.667 246.838 277.667 248.727C277.667 249.987 277.8 251.057 278.065 251.938C278.33 252.818 278.711 253.488 279.208 253.947C279.71 254.407 280.314 254.636 281.02 254.636ZM293.52 256.199C292.449 256.199 291.538 255.908 290.785 255.325C290.032 254.738 289.457 253.888 289.059 252.776C288.662 251.658 288.463 250.309 288.463 248.727C288.463 247.155 288.662 245.813 289.059 244.7C289.462 243.583 290.039 242.731 290.792 242.143C291.55 241.552 292.459 241.256 293.52 241.256C294.58 241.256 295.487 241.552 296.24 242.143C296.997 242.731 297.575 243.583 297.973 244.7C298.375 245.813 298.576 247.155 298.576 248.727C298.576 250.309 298.377 251.658 297.98 252.776C297.582 253.888 297.007 254.738 296.254 255.325C295.501 255.908 294.59 256.199 293.52 256.199ZM293.52 254.636C294.58 254.636 295.404 254.125 295.991 253.102C296.578 252.08 296.872 250.621 296.872 248.727C296.872 247.468 296.737 246.395 296.467 245.51C296.202 244.625 295.818 243.95 295.316 243.486C294.819 243.022 294.22 242.79 293.52 242.79C292.468 242.79 291.647 243.308 291.055 244.345C290.463 245.377 290.167 246.838 290.167 248.727C290.167 249.987 290.3 251.057 290.565 251.938C290.83 252.818 291.211 253.488 291.708 253.947C292.21 254.407 292.814 254.636 293.52 254.636Z" fill="black"/>
</g>
<rect x="0.5" y="0.5" width="499" height="499" stroke="black"/>
<defs>
<clipPath id="clip0_510_3806">
<rect width="500" height="500" fill="white"/>
</clipPath>
</defs>
</svg>
