<svg width="100" height="100" viewBox="0 0 100 100" fill="none" xmlns="http://www.w3.org/2000/svg">
<rect width="100" height="100" fill="#1D1D1D"/>
<path d="M0.5 99.5L99.5 0.5M0.5 0.5L99.5 99.5" stroke="#D1D1D1"/>
<rect x="20" y="42" width="61" height="16" fill="#1D1D1D"/>
<path d="M24.3249 45.5455V55H23.18V46.7457H23.1246L20.8164 48.2784V47.1151L23.18 45.5455H24.3249ZM31.4278 55.1293C30.7323 55.1293 30.1398 54.94 29.6505 54.5614C29.1611 54.1798 28.7872 53.6274 28.5287 52.9041C28.2702 52.1778 28.1409 51.3007 28.1409 50.2727C28.1409 49.2509 28.2702 48.3784 28.5287 47.6552C28.7903 46.9289 29.1658 46.3749 29.6551 45.9933C30.1475 45.6085 30.7384 45.4162 31.4278 45.4162C32.1172 45.4162 32.7066 45.6085 33.1959 45.9933C33.6884 46.3749 34.0638 46.9289 34.3224 47.6552C34.584 48.3784 34.7148 49.2509 34.7148 50.2727C34.7148 51.3007 34.5855 52.1778 34.327 52.9041C34.0685 53.6274 33.6945 54.1798 33.2052 54.5614C32.7158 54.94 32.1234 55.1293 31.4278 55.1293ZM31.4278 54.1136C32.1172 54.1136 32.6527 53.7812 33.0344 53.1165C33.416 52.4517 33.6068 51.5038 33.6068 50.2727C33.6068 49.4541 33.5191 48.757 33.3437 48.1815C33.1713 47.6059 32.922 47.1674 32.5958 46.8658C32.2726 46.5642 31.8833 46.4134 31.4278 46.4134C30.7446 46.4134 30.2106 46.7504 29.8259 47.4244C29.4412 48.0953 29.2489 49.0447 29.2489 50.2727C29.2489 51.0914 29.335 51.7869 29.5074 52.3594C29.6797 52.9318 29.9275 53.3673 30.2506 53.6658C30.5769 53.9644 30.9693 54.1136 31.4278 54.1136ZM40.8528 55.1293C40.1573 55.1293 39.5648 54.94 39.0755 54.5614C38.5861 54.1798 38.2122 53.6274 37.9537 52.9041C37.6952 52.1778 37.5659 51.3007 37.5659 50.2727C37.5659 49.2509 37.6952 48.3784 37.9537 47.6552C38.2153 46.9289 38.5908 46.3749 39.0801 45.9933C39.5725 45.6085 40.1634 45.4162 40.8528 45.4162C41.5422 45.4162 42.1316 45.6085 42.6209 45.9933C43.1134 46.3749 43.4888 46.9289 43.7474 47.6552C44.009 48.3784 44.1398 49.2509 44.1398 50.2727C44.1398 51.3007 44.0105 52.1778 43.752 52.9041C43.4935 53.6274 43.1195 54.1798 42.6302 54.5614C42.1408 54.94 41.5484 55.1293 40.8528 55.1293ZM40.8528 54.1136C41.5422 54.1136 42.0777 53.7812 42.4594 53.1165C42.841 52.4517 43.0318 51.5038 43.0318 50.2727C43.0318 49.4541 42.9441 48.757 42.7687 48.1815C42.5963 47.6059 42.347 47.1674 42.0208 46.8658C41.6976 46.5642 41.3083 46.4134 40.8528 46.4134C40.1696 46.4134 39.6356 46.7504 39.2509 47.4244C38.8662 48.0953 38.6739 49.0447 38.6739 50.2727C38.6739 51.0914 38.76 51.7869 38.9324 52.3594C39.1047 52.9318 39.3525 53.3673 39.6756 53.6658C40.0019 53.9644 40.3943 54.1136 40.8528 54.1136ZM52.7523 53.3011L47.5449 48.0938L48.2466 47.392L53.454 52.5994L52.7523 53.3011ZM48.2466 53.3011L47.5449 52.5994L52.7523 47.392L53.454 48.0938L48.2466 53.3011ZM60.3872 45.5455V55H59.2423V46.7457H59.1869L56.8787 48.2784V47.1151L59.2423 45.5455H60.3872ZM67.4901 55.1293C66.7946 55.1293 66.2021 54.94 65.7128 54.5614C65.2234 54.1798 64.8495 53.6274 64.591 52.9041C64.3325 52.1778 64.2032 51.3007 64.2032 50.2727C64.2032 49.2509 64.3325 48.3784 64.591 47.6552C64.8526 46.9289 65.2281 46.3749 65.7174 45.9933C66.2098 45.6085 66.8007 45.4162 67.4901 45.4162C68.1795 45.4162 68.7689 45.6085 69.2582 45.9933C69.7507 46.3749 70.1261 46.9289 70.3847 47.6552C70.6463 48.3784 70.7771 49.2509 70.7771 50.2727C70.7771 51.3007 70.6478 52.1778 70.3893 52.9041C70.1308 53.6274 69.7568 54.1798 69.2675 54.5614C68.7781 54.94 68.1857 55.1293 67.4901 55.1293ZM67.4901 54.1136C68.1795 54.1136 68.715 53.7812 69.0967 53.1165C69.4783 52.4517 69.6691 51.5038 69.6691 50.2727C69.6691 49.4541 69.5814 48.757 69.406 48.1815C69.2336 47.6059 68.9843 47.1674 68.6581 46.8658C68.335 46.5642 67.9456 46.4134 67.4901 46.4134C66.8069 46.4134 66.2729 46.7504 65.8882 47.4244C65.5035 48.0953 65.3112 49.0447 65.3112 50.2727C65.3112 51.0914 65.3973 51.7869 65.5697 52.3594C65.742 52.9318 65.9898 53.3673 66.3129 53.6658C66.6392 53.9644 67.0316 54.1136 67.4901 54.1136ZM76.9151 55.1293C76.2196 55.1293 75.6271 54.94 75.1378 54.5614C74.6484 54.1798 74.2745 53.6274 74.016 52.9041C73.7575 52.1778 73.6282 51.3007 73.6282 50.2727C73.6282 49.2509 73.7575 48.3784 74.016 47.6552C74.2776 46.9289 74.6531 46.3749 75.1424 45.9933C75.6348 45.6085 76.2257 45.4162 76.9151 45.4162C77.6045 45.4162 78.1939 45.6085 78.6832 45.9933C79.1757 46.3749 79.5511 46.9289 79.8097 47.6552C80.0713 48.3784 80.2021 49.2509 80.2021 50.2727C80.2021 51.3007 80.0728 52.1778 79.8143 52.9041C79.5558 53.6274 79.1818 54.1798 78.6925 54.5614C78.2031 54.94 77.6107 55.1293 76.9151 55.1293ZM76.9151 54.1136C77.6045 54.1136 78.14 53.7812 78.5217 53.1165C78.9033 52.4517 79.0941 51.5038 79.0941 50.2727C79.0941 49.4541 79.0064 48.757 78.831 48.1815C78.6586 47.6059 78.4093 47.1674 78.0831 46.8658C77.76 46.5642 77.3706 46.4134 76.9151 46.4134C76.2319 46.4134 75.6979 46.7504 75.3132 47.4244C74.9285 48.0953 74.7362 49.0447 74.7362 50.2727C74.7362 51.0914 74.8223 51.7869 74.9947 52.3594C75.167 52.9318 75.4148 53.3673 75.7379 53.6658C76.0642 53.9644 76.4566 54.1136 76.9151 54.1136Z" fill="#D1D1D1"/>
</svg>
